<svg xmlns="http://www.w3.org/2000/svg" xmlns:xlink="http://www.w3.org/1999/xlink" viewBox="0 0 1400 320"><defs><style>.cls-1{fill:#021e37;}.cls-2{fill:#9dfd66;}.cls-3{fill:#fff;}.cls-4{fill:#1c91b2;}.cls-5{fill:#36dd96;}.cls-6{fill:url(#linear-gradient);}</style><linearGradient id="linear-gradient" x1="54.66" y1="142" x2="210.66" y2="142" gradientUnits="userSpaceOnUse"><stop offset="0" stop-color="#fff"/><stop offset="1" stop-color="#eef2f3"/></linearGradient></defs><title>Asset 6</title><g id="Layer_2" data-name="Layer 2"><g id="Layer_1-2" data-name="Layer 1"><rect class="cls-1" width="1400" height="320" rx="24.16"/></g><g id="Layer_3" data-name="Layer 3"><path class="cls-2" d="M333.71,124.28a17.52,17.52,0,0,1,17.4,17.4v52.2H298a17.52,17.52,0,0,1-17.4-17.4V149.84h52.2v-7.2h-52.2V124.28Zm-1,51.24v-9.6H298.91v9.6Z"/><path class="cls-2" d="M455.39,124.28h19.44l-26.16,69.6H434.75l-18.84-41.52-18,41.52h-13.8l-27.36-69.6h19.44l15,36.12,5.16-12q1.2-2.75,5-11.28t5.58-12.84h17.76l16.8,36.6Z"/><path class="cls-2" d="M531.47,124.28a17.52,17.52,0,0,1,17.4,17.4v26.65h-52.2v7.19h52.2v18.36H495.71a17.62,17.62,0,0,1-17.4-17.4v-34.8a17.62,17.62,0,0,1,17.4-17.4Zm-34.8,28h33.84v-9.6H496.67Z"/><path class="cls-2" d="M630.59,141.68v3.48H612.11v-2.52H578.27v7.2h34.8a17.41,17.41,0,0,1,17.52,17.41v9.23a17.52,17.52,0,0,1-17.52,17.4H577.31a17.62,17.62,0,0,1-17.4-17.4V173h18.36v2.52h33.84v-7.19h-34.8a17.62,17.62,0,0,1-17.4-17.41v-9.24a17.62,17.62,0,0,1,17.4-17.4h35.76a17.52,17.52,0,0,1,17.52,17.4Z"/><path class="cls-2" d="M657.71,124.28h35.76a17.52,17.52,0,0,1,17.4,17.4v34.8a17.52,17.52,0,0,1-17.4,17.4H657.71a17.62,17.62,0,0,1-17.4-17.4v-34.8a17.62,17.62,0,0,1,17.4-17.4Zm1,18.36v32.88h33.84V142.64Z"/><path class="cls-2" d="M807.59,124.28a17.52,17.52,0,0,1,17.4,17.4v52.2H806.75V142.64h-23v51.24H765.23V142.64h-23v51.24H723.83v-69.6Z"/><path class="cls-2" d="M889.31,124.28a17.52,17.52,0,0,1,17.4,17.4v26.65h-52.2v7.19h52.2v18.36H853.55a17.62,17.62,0,0,1-17.4-17.4v-34.8a17.62,17.62,0,0,1,17.4-17.4Zm-34.8,28h33.84v-9.6H854.51Z"/><path class="cls-3" d="M1013.08,177.68v16.2H960.41V106.46h20.28v71.22Z"/><path class="cls-3" d="M1061,177.87a18.47,18.47,0,0,0,7.29-1.36,14.52,14.52,0,0,0,5.43-3.87,17.06,17.06,0,0,0,3.39-6.14,26.88,26.88,0,0,0,1.17-8.26V106.46h20.28v51.78a40.36,40.36,0,0,1-2.61,14.76,33,33,0,0,1-7.47,11.58,33.57,33.57,0,0,1-11.82,7.56,46.94,46.94,0,0,1-31.38,0,33.57,33.57,0,0,1-11.82-7.56A32.67,32.67,0,0,1,1026,173a40.78,40.78,0,0,1-2.58-14.76V106.46h20.28v51.72a26.77,26.77,0,0,0,1.17,8.25,17.38,17.38,0,0,0,3.39,6.19,14.46,14.46,0,0,0,5.43,3.89A18.47,18.47,0,0,0,1061,177.87Z"/><path class="cls-3" d="M1176.16,171.26a4.09,4.09,0,0,1,1.44.28,3.88,3.88,0,0,1,1.38.92l8,8.46a33.2,33.2,0,0,1-13.23,10.41,46.3,46.3,0,0,1-18.81,3.51,45,45,0,0,1-17.85-3.38,38.52,38.52,0,0,1-13.38-9.37,41.13,41.13,0,0,1-8.43-14.16,52.29,52.29,0,0,1-2.94-17.79,49.28,49.28,0,0,1,3.18-18A41.73,41.73,0,0,1,1124.5,118a40.26,40.26,0,0,1,13.8-9.24,46.37,46.37,0,0,1,17.7-3.3,47.21,47.21,0,0,1,9.27.88,45.3,45.3,0,0,1,8.13,2.39,37.14,37.14,0,0,1,7,3.69,36.52,36.52,0,0,1,5.64,4.68l-6.84,9.18a8.09,8.09,0,0,1-1.56,1.53,4.06,4.06,0,0,1-2.52.69,4.38,4.38,0,0,1-2-.48,20.39,20.39,0,0,1-2-1.17l-2.37-1.5a18.19,18.19,0,0,0-3.06-1.5,27.45,27.45,0,0,0-4.14-1.17,29,29,0,0,0-5.55-.48,22.52,22.52,0,0,0-9.21,1.86,20.31,20.31,0,0,0-7.2,5.43,25.29,25.29,0,0,0-4.68,8.76,39.09,39.09,0,0,0-1.65,11.85,36,36,0,0,0,1.83,11.94,26.17,26.17,0,0,0,5,8.8,21.1,21.1,0,0,0,7.35,5.42,22,22,0,0,0,9,1.87,40.89,40.89,0,0,0,5-.28,22.93,22.93,0,0,0,4.26-.89,17.39,17.39,0,0,0,3.72-1.69,22.82,22.82,0,0,0,3.54-2.67,7.92,7.92,0,0,1,1.56-1A4.09,4.09,0,0,1,1176.16,171.26Z"/><path class="cls-3" d="M1219.06,141.86h3.24c3,0,5.16-.93,6.48-2.82l19.68-28.56a9.77,9.77,0,0,1,3.75-3.15,12.82,12.82,0,0,1,5-.87h17.64l-25.92,35.34a17.55,17.55,0,0,1-5.94,5.28,15.07,15.07,0,0,1,4.14,2.34,18.07,18.07,0,0,1,3.48,3.9l26.4,40.56H1258.9a15.77,15.77,0,0,1-3-.24,7,7,0,0,1-2.13-.72,5.91,5.91,0,0,1-1.56-1.17,12.13,12.13,0,0,1-1.26-1.58l-19.8-30.43a5.94,5.94,0,0,0-2.73-2.36,11.82,11.82,0,0,0-4.47-.7h-4.92v37.2h-20.28V106.46h20.28Z"/><path class="cls-3" d="M1328.32,160.64v33.24H1308V160.64l-31.68-54.18h17.88a6.53,6.53,0,0,1,4.17,1.23,10.1,10.1,0,0,1,2.55,3.15l12.36,25.44c1,2,2,3.87,2.82,5.61s1.58,3.45,2.22,5.13c.6-1.71,1.29-3.45,2.07-5.19s1.69-3.58,2.73-5.55l12.24-25.44a12.94,12.94,0,0,1,1-1.56,7.79,7.79,0,0,1,1.41-1.4,7,7,0,0,1,1.86-1,6.82,6.82,0,0,1,2.31-.39h18Z"/></g><g id="Layer_2-2" data-name="Layer 2"><path class="cls-2" d="M177.21,110.83c4.33,7.48,8.74,14.92,13,22.44,9.68,17.09,19.36,34.18,28.89,51.36,17.17,31-2.94,65.43-38.26,65.53-26.66.07-53.33-.08-80-.14,15.09-39.91,33.72-78,57.74-113.38C164.54,127.87,171,119.42,177.21,110.83Z"/><path class="cls-4" d="M76.6,249.32C59.71,248,44.05,233,40.75,215.22c-2-10.67.06-20.57,5.24-29.85,16-28.65,32-57.3,48.25-85.8,15-26.21,45-31.6,67.51-12.39a9.49,9.49,0,0,1,3.2,3.74c-4.48,5.55-9.11,11-13.4,16.67a448.49,448.49,0,0,0-38.05,59.55C99.36,193.7,86.47,220.84,76.6,249.32Z"/><path class="cls-5" d="M76.6,249.32c9.87-28.48,22.76-55.62,36.9-82.18a448.49,448.49,0,0,1,38.05-59.55c4.29-5.68,8.92-11.12,13.4-16.67,5.51,5.76,8.78,12.9,12.26,19.91-6.22,8.59-12.67,17-18.63,25.81-24,35.35-42.65,73.47-57.74,113.38C92.75,249.93,84.63,251.07,76.6,249.32Z"/><path class="cls-6" d="M173.32,103.09c1.35,2.55,2.6,5.15,3.89,7.74-1,1.42-1,1.42,0,0q4.41,7.62,8.84,15.22l12.32,11.3H67l12.19-11.19q6.64-11.77,13.34-23.53L54.69,137.35h0v24.18a17.09,17.09,0,0,0,1.18,6.21c3.09,7.9,11.92,13.63,22.29,13.63H102.8a27.07,27.07,0,0,0,3.39-.21c11.33-1.39,20.07-9.67,20.07-19.63V145.64h12.8v15.89a17,17,0,0,0,.79,5.09c2.66,8.48,11.82,14.75,22.68,14.75H187.2c10.45,0,19.33-5.81,22.35-13.81a17,17,0,0,0,1.11-6V137.35Z"/></g></g></svg>