<svg xmlns="http://www.w3.org/2000/svg" xmlns:xlink="http://www.w3.org/1999/xlink" viewBox="0 0 1400 320"><defs><style>.cls-1{fill:#021e37;}.cls-2{fill:#9dfd66;}.cls-3{fill:#fff;}.cls-4{fill:#1c91b2;}.cls-5{fill:#36dd96;}.cls-6{fill:url(#linear-gradient);}</style><linearGradient id="linear-gradient" x1="622" y1="92" x2="778" y2="92" gradientUnits="userSpaceOnUse"><stop offset="0" stop-color="#fff"/><stop offset="1" stop-color="#eef2f3"/></linearGradient></defs><title>Asset 8</title><g id="Layer_2" data-name="Layer 2"><g id="Layer_1-2" data-name="Layer 1"><rect class="cls-1" width="1400" height="320" rx="24.16"/></g><g id="Layer_4" data-name="Layer 4"><path class="cls-2" d="M365.26,243.33a12,12,0,0,1,11.89,11.88v35.67H340.83A12,12,0,0,1,328.94,279V260.79h35.67v-4.92H328.94V243.33Zm-.65,35v-6.56H341.48v6.56Z"/><path class="cls-2" d="M449,243.33h13.29l-17.88,47.55h-9.51L422,262.51l-12.3,28.37h-9.43l-18.69-47.55h13.28L405.11,268l3.53-8.2c.54-1.26,1.68-3.83,3.4-7.71s3-6.81,3.81-8.77H428l11.48,25Z"/><path class="cls-2" d="M501.54,243.33a11.37,11.37,0,0,1,8.41,3.52,11.5,11.5,0,0,1,3.48,8.36v18.21H477.76v4.92h35.67v12.54H477.11A12,12,0,0,1,465.22,279V255.21a12,12,0,0,1,11.89-11.88Zm-23.78,19.1h23.13v-6.56H477.76Z"/><path class="cls-2" d="M569.85,255.21v2.38H557.22v-1.72H534.1v4.92h23.78a11.9,11.9,0,0,1,12,11.89V279a12,12,0,0,1-12,11.88H533.44A12,12,0,0,1,521.55,279v-2.38H534.1v1.72h23.12v-4.92H533.44a12.06,12.06,0,0,1-11.89-11.89v-6.32a12,12,0,0,1,11.89-11.88h24.44a12,12,0,0,1,12,11.88Z"/><path class="cls-2" d="M589,243.33h24.43a12,12,0,0,1,11.89,11.88V279a12,12,0,0,1-11.89,11.88H589A12,12,0,0,1,577.07,279V255.21A12,12,0,0,1,589,243.33Zm.65,12.54v22.47h23.13V255.87Z"/><path class="cls-2" d="M692,243.33a11.37,11.37,0,0,1,8.4,3.52,11.51,11.51,0,0,1,3.49,8.36v35.67H691.37v-35H675.63v35H663v-35H647.26v35H634.71V243.33Z"/><path class="cls-2" d="M748.36,243.33a12,12,0,0,1,11.89,11.88v18.21H724.58v4.92h35.67v12.54H723.93A12,12,0,0,1,712,279V255.21a12,12,0,0,1,11.89-11.88Zm-23.78,19.1h23.13v-6.56H724.58Z"/><path class="cls-3" d="M833.52,279.81v11.07h-36V231.15h13.86v48.66Z"/><path class="cls-3" d="M866.89,279.94a12.82,12.82,0,0,0,5-.92,10.13,10.13,0,0,0,3.71-2.65,11.71,11.71,0,0,0,2.32-4.2,18.46,18.46,0,0,0,.8-5.64V231.15h13.86v35.38a27.64,27.64,0,0,1-1.79,10.09,22.65,22.65,0,0,1-5.1,7.91,23.08,23.08,0,0,1-8.08,5.17,32.15,32.15,0,0,1-21.44,0,23.17,23.17,0,0,1-8.08-5.17,22.32,22.32,0,0,1-5.08-7.91,27.85,27.85,0,0,1-1.76-10.09V231.15h13.85v35.34a18.51,18.51,0,0,0,.8,5.64,12,12,0,0,0,2.32,4.22,10.06,10.06,0,0,0,3.71,2.67A12.82,12.82,0,0,0,866.89,279.94Z"/><path class="cls-3" d="M946.27,275.43a2.83,2.83,0,0,1,1,.18,2.76,2.76,0,0,1,.94.64l5.5,5.78a22.88,22.88,0,0,1-9,7.11,31.64,31.64,0,0,1-12.86,2.4,30.5,30.5,0,0,1-12.19-2.32,26.38,26.38,0,0,1-9.15-6.39,28.22,28.22,0,0,1-5.76-9.68,35.69,35.69,0,0,1-2-12.15,33.6,33.6,0,0,1,2.18-12.28,28.52,28.52,0,0,1,6.11-9.66,27.43,27.43,0,0,1,9.43-6.31,31.4,31.4,0,0,1,12.09-2.26,32.11,32.11,0,0,1,6.34.6,30.15,30.15,0,0,1,5.55,1.64,24.77,24.77,0,0,1,4.76,2.52,24.5,24.5,0,0,1,3.85,3.2l-4.67,6.27a5.87,5.87,0,0,1-1.07,1,2.73,2.73,0,0,1-1.72.48,3,3,0,0,1-1.39-.33c-.44-.22-.91-.49-1.4-.8l-1.62-1a12,12,0,0,0-2.09-1,17,17,0,0,0-2.83-.8,19.16,19.16,0,0,0-3.79-.33,15.37,15.37,0,0,0-6.29,1.27,13.81,13.81,0,0,0-4.92,3.71,17.14,17.14,0,0,0-3.2,6,26.73,26.73,0,0,0-1.13,8.1,24.61,24.61,0,0,0,1.25,8.15,17.87,17.87,0,0,0,3.4,6,14.44,14.44,0,0,0,5,3.71,15,15,0,0,0,6.15,1.27,30.2,30.2,0,0,0,3.44-.18,15.92,15.92,0,0,0,2.91-.62,11.87,11.87,0,0,0,2.54-1.14,15.72,15.72,0,0,0,2.42-1.83,5.23,5.23,0,0,1,1.07-.68A2.9,2.9,0,0,1,946.27,275.43Z"/><path class="cls-3" d="M976.24,255.34h2.21a5,5,0,0,0,4.43-1.93l13.45-19.52a6.66,6.66,0,0,1,2.56-2.15,8.78,8.78,0,0,1,3.42-.59h12.06L996.66,255.3a12.29,12.29,0,0,1-4.06,3.61,10.11,10.11,0,0,1,2.83,1.59,12.25,12.25,0,0,1,2.37,2.67l18,27.71h-12.38a10.77,10.77,0,0,1-2-.16,5.14,5.14,0,0,1-1.45-.49,4.34,4.34,0,0,1-1.07-.8,7.52,7.52,0,0,1-.86-1.09l-13.53-20.78a4,4,0,0,0-1.87-1.62,7.94,7.94,0,0,0-3-.48h-3.36v25.42H962.38V231.15h13.86Z"/><path class="cls-3" d="M1051.55,268.17v22.71H1037.7V268.17l-21.65-37h12.22a4.44,4.44,0,0,1,2.85.84,7,7,0,0,1,1.74,2.15l8.44,17.39c.71,1.36,1.36,2.64,1.93,3.83s1.08,2.36,1.52,3.5q.62-1.75,1.41-3.54c.54-1.19,1.16-2.46,1.87-3.79l8.36-17.39a8.06,8.06,0,0,1,.7-1.06,5.18,5.18,0,0,1,1-1,4.5,4.5,0,0,1,2.85-1h12.3Z"/><path class="cls-2" d="M744.55,60.83c4.33,7.48,8.74,14.92,13,22.44,9.67,17.09,19.36,34.18,28.89,51.36,17.17,31-2.94,65.43-38.26,65.53-26.67.07-53.33-.08-80-.14,15.08-39.91,33.72-78,57.74-113.38C731.88,77.87,738.32,69.42,744.55,60.83Z"/><path class="cls-4" d="M643.93,199.32c-16.88-1.29-32.54-16.33-35.85-34.1-2-10.67.07-20.57,5.25-29.85,16-28.65,32-57.3,48.25-85.8,14.95-26.21,45-31.6,67.51-12.39a9.49,9.49,0,0,1,3.2,3.74c-4.48,5.55-9.11,11-13.41,16.67a448.43,448.43,0,0,0-38,59.55C666.69,143.7,653.81,170.84,643.93,199.32Z"/><path class="cls-5" d="M643.93,199.32c9.88-28.48,22.76-55.62,36.91-82.18a448.43,448.43,0,0,1,38-59.55c4.3-5.68,8.93-11.12,13.41-16.67,5.51,5.76,8.78,12.9,12.25,19.91-6.22,8.59-12.66,17-18.62,25.81C701.9,122,683.26,160.11,668.18,200,660.09,199.93,652,201.07,643.93,199.32Z"/><path class="cls-6" d="M740.66,53.09c1.35,2.55,2.6,5.15,3.88,7.74q-1.54,2.13,0,0,4.41,7.62,8.84,15.22l12.32,11.3H634.32l12.19-11.19q6.65-11.77,13.33-23.53L622,87.35h0v24.18a17.09,17.09,0,0,0,1.18,6.21c3.09,7.9,11.92,13.63,22.29,13.63h24.66a27.11,27.11,0,0,0,3.4-.21c11.33-1.39,20.07-9.67,20.07-19.63V95.64h12.8v15.89a17,17,0,0,0,.79,5.09c2.66,8.48,11.82,14.75,22.68,14.75h24.66c10.45,0,19.33-5.81,22.36-13.81a17,17,0,0,0,1.11-6V87.35Z"/></g></g></svg>