<svg xmlns="http://www.w3.org/2000/svg" xmlns:xlink="http://www.w3.org/1999/xlink" viewBox="0 0 1401 321"><defs><style>.cls-1{fill:#021e37;stroke:#000;stroke-linejoin:round;}.cls-2{font-size:94px;font-family:Orbitron-Black, Orbitron;font-weight:800;letter-spacing:-0.04em;}.cls-12,.cls-2{fill:#9dfd66;}.cls-3{letter-spacing:-0.05em;}.cls-4{letter-spacing:-0.01em;}.cls-5{letter-spacing:-0.02em;}.cls-6{letter-spacing:0em;}.cls-7{letter-spacing:-0.04em;}.cls-10,.cls-11,.cls-8,.cls-9{fill:#fff;}.cls-8{letter-spacing:0em;}.cls-10,.cls-11,.cls-9{font-family:Lato-ExtraBold, Lato;}.cls-9{letter-spacing:0.01em;}.cls-10{letter-spacing:0.02em;}.cls-11{letter-spacing:-0.02em;}.cls-13{fill:#1c91b2;}.cls-14{fill:#36dd96;}.cls-15{fill:url(#linear-gradient);}</style><linearGradient id="linear-gradient" x1="622.5" y1="92.5" x2="778.5" y2="92.5" gradientUnits="userSpaceOnUse"><stop offset="0" stop-color="#fff"/><stop offset="1" stop-color="#eef2f3"/></linearGradient></defs><title>Asset 4</title><g id="Layer_2" data-name="Layer 2"><g id="Layer_4" data-name="Layer 4"><rect class="cls-1" x="0.5" y="0.5" width="1400" height="320" rx="24.16"/><text class="cls-2" transform="translate(273.89 291.38)">a<tspan class="cls-3" x="61.47" y="0">w</tspan><tspan class="cls-4" x="155.38" y="0">e</tspan><tspan class="cls-5" x="219.77" y="0">s</tspan><tspan class="cls-6" x="282.66" y="0">o</tspan><tspan class="cls-7" x="347.98" y="0">m</tspan><tspan class="cls-6" x="436.44" y="0">e</tspan><tspan class="cls-8" x="501.77" y="0"> </tspan><tspan class="cls-9" x="532.13" y="0">L</tspan><tspan class="cls-10" x="582.32" y="0">UCK</tspan><tspan class="cls-11" x="787.52" y="0">Y</tspan></text><path class="cls-12" d="M745.05,61.33c4.33,7.48,8.74,14.92,13,22.44,9.67,17.09,19.36,34.18,28.89,51.36,17.17,31-2.94,65.43-38.26,65.53-26.67.07-53.33-.08-80-.14,15.08-39.91,33.72-78,57.74-113.38C732.38,78.37,738.82,69.92,745.05,61.33Z"/><path class="cls-13" d="M644.43,199.82c-16.88-1.29-32.54-16.33-35.85-34.1-2-10.67.07-20.57,5.25-29.85,16-28.65,32-57.3,48.25-85.8,14.95-26.21,45-31.6,67.51-12.39a9.49,9.49,0,0,1,3.2,3.74c-4.48,5.55-9.11,11-13.41,16.67a448.43,448.43,0,0,0-38,59.55C667.19,144.2,654.31,171.34,644.43,199.82Z"/><path class="cls-14" d="M644.43,199.82c9.88-28.48,22.76-55.62,36.91-82.18a448.43,448.43,0,0,1,38-59.55c4.3-5.68,8.93-11.12,13.41-16.67,5.51,5.76,8.78,12.9,12.25,19.91-6.22,8.59-12.66,17-18.62,25.81-24,35.35-42.66,73.47-57.74,113.38C660.59,200.43,652.47,201.57,644.43,199.82Z"/><path class="cls-15" d="M741.16,53.59c1.35,2.55,2.6,5.15,3.88,7.74q-1.54,2.13,0,0,4.41,7.62,8.84,15.22l12.32,11.3H634.82L647,76.66q6.65-11.77,13.33-23.53L622.53,87.85h0V112a17.09,17.09,0,0,0,1.18,6.21c3.09,7.9,11.92,13.63,22.29,13.63h24.66a27.11,27.11,0,0,0,3.4-.21C685.36,130.27,694.1,122,694.1,112V96.14h12.8V112a17,17,0,0,0,.79,5.09c2.66,8.48,11.82,14.75,22.68,14.75H755c10.45,0,19.33-5.81,22.36-13.81a17,17,0,0,0,1.11-6V87.85Z"/></g></g></svg>