<svg xmlns="http://www.w3.org/2000/svg" xmlns:xlink="http://www.w3.org/1999/xlink" viewBox="0 0 1401 321"><defs><style>.cls-1{fill:#021e37;stroke:#000;stroke-linejoin:round;}.cls-2{font-size:120px;font-family:Orbitron-Black, Orbitron;font-weight:800;letter-spacing:-0.04em;}.cls-12,.cls-2{fill:#9dfd66;}.cls-3{letter-spacing:-0.06em;}.cls-4{letter-spacing:-0.01em;}.cls-5{letter-spacing:-0.02em;}.cls-6{letter-spacing:0em;}.cls-7{letter-spacing:-0.04em;}.cls-10,.cls-11,.cls-8,.cls-9{fill:#fff;}.cls-8{letter-spacing:0em;}.cls-10,.cls-11,.cls-9{font-family:Lato-ExtraBold, Lato;}.cls-9{letter-spacing:0.01em;}.cls-10{letter-spacing:0.02em;}.cls-11{letter-spacing:-0.02em;}.cls-13{fill:#1c91b2;}.cls-14{fill:#36dd96;}.cls-15{fill:url(#linear-gradient);}</style><linearGradient id="linear-gradient" x1="55.16" y1="142.5" x2="211.16" y2="142.5" gradientUnits="userSpaceOnUse"><stop offset="0" stop-color="#fff"/><stop offset="1" stop-color="#eef2f3"/></linearGradient></defs><title>Asset 5</title><g id="Layer_2" data-name="Layer 2"><g id="Layer_1-2" data-name="Layer 1"><rect class="cls-1" x="0.5" y="0.5" width="1400" height="320" rx="24.16"/></g><g id="Layer_3" data-name="Layer 3"><text class="cls-2" transform="translate(274.81 194.38)">a<tspan class="cls-3" x="78.24" y="0">w</tspan><tspan class="cls-4" x="197.88" y="0">e</tspan><tspan class="cls-5" x="279.84" y="0">s</tspan><tspan class="cls-6" x="359.88" y="0">o</tspan><tspan class="cls-7" x="443.04" y="0">m</tspan><tspan class="cls-6" x="555.72" y="0">e</tspan><tspan class="cls-8" x="638.87" y="0"> </tspan><tspan class="cls-9" x="677.63" y="0">L</tspan><tspan class="cls-10" x="741.71" y="0">UCK</tspan><tspan class="cls-11" x="1003.67" y="0">Y</tspan></text></g><g id="Layer_2-2" data-name="Layer 2"><path class="cls-12" d="M177.71,111.33c4.33,7.48,8.74,14.92,13,22.44,9.68,17.09,19.36,34.18,28.89,51.36,17.17,31-2.94,65.43-38.26,65.53-26.66.07-53.33-.08-80-.14,15.09-39.91,33.72-78,57.74-113.38C165,128.37,171.49,119.92,177.71,111.33Z"/><path class="cls-13" d="M77.1,249.82c-16.89-1.29-32.55-16.33-35.85-34.1-2-10.67.06-20.57,5.24-29.85,16-28.65,32-57.3,48.25-85.8,15-26.21,45-31.6,67.51-12.39a9.49,9.49,0,0,1,3.2,3.74c-4.48,5.55-9.11,11-13.4,16.67A448.49,448.49,0,0,0,114,167.64C99.86,194.2,87,221.34,77.1,249.82Z"/><path class="cls-14" d="M77.1,249.82C87,221.34,99.86,194.2,114,167.64a448.49,448.49,0,0,1,38.05-59.55c4.29-5.68,8.92-11.12,13.4-16.67,5.51,5.76,8.78,12.9,12.26,19.91-6.22,8.59-12.67,17-18.63,25.81-24,35.35-42.65,73.47-57.74,113.38C93.25,250.43,85.13,251.57,77.1,249.82Z"/><path class="cls-15" d="M173.82,103.59c1.35,2.55,2.6,5.15,3.89,7.74-1,1.42-1,1.42,0,0q4.41,7.62,8.84,15.22l12.32,11.3H67.48l12.19-11.19Q86.32,114.89,93,103.13L55.19,137.85h0V162a17.09,17.09,0,0,0,1.18,6.21c3.09,7.9,11.92,13.63,22.29,13.63H103.3a27.07,27.07,0,0,0,3.39-.21C118,180.27,126.76,172,126.76,162V146.14h12.8V162a17,17,0,0,0,.79,5.09c2.66,8.48,11.82,14.75,22.68,14.75H187.7c10.45,0,19.33-5.81,22.35-13.81a17,17,0,0,0,1.11-6V137.85Z"/></g></g></svg>